<?xml version="1.0" encoding="UTF-8" standalone="no"?><!DOCTYPE svg PUBLIC "-//W3C//DTD SVG 1.1//EN" "http://www.w3.org/Graphics/SVG/1.1/DTD/svg11.dtd"><svg width="480" height="112" viewBox="0 0 480 112" version="1.1" xmlns="http://www.w3.org/2000/svg" xmlns:xlink="http://www.w3.org/1999/xlink" xml:space="preserve" style="fill-rule:evenodd;clip-rule:evenodd;stroke-miterlimit:5;"><g><path d="M318,48c0,-1.591 -0.632,-3.117 -1.757,-4.243c-1.126,-1.125 -2.652,-1.757 -4.243,-1.757c-4.724,0 -11.276,0 -16,0c-1.591,0 -3.117,0.632 -4.243,1.757c-1.125,1.126 -1.757,2.652 -1.757,4.243c0,4.724 0,11.276 0,16c0,1.591 0.632,3.117 1.757,4.243c1.126,1.125 2.652,1.757 4.243,1.757c4.724,0 11.276,0 16,0c1.591,0 3.117,-0.632 4.243,-1.757c1.125,-1.126 1.757,-2.652 1.757,-4.243c0,-4.724 0,-11.276 0,-16Z" style="fill:#28aef4;"/><path id="twitter" d="M310.457,52.6c0.007,0.147 0.008,0.294 0.008,0.443c0,4.52 -3.35,9.731 -9.478,9.731c-1.882,0 -3.632,-0.565 -5.107,-1.537c0.26,0.03 0.525,0.048 0.794,0.048c1.561,0 2.997,-0.546 4.139,-1.464c-1.458,-0.023 -2.69,-1.016 -3.114,-2.375c0.204,0.043 0.414,0.062 0.628,0.062c0.303,0 0.597,-0.042 0.878,-0.12c-1.525,-0.315 -2.674,-1.697 -2.674,-3.353c0,-0.019 0,-0.027 0,-0.043c0.45,0.255 0.964,0.41 1.51,0.427c-0.895,-0.614 -1.483,-1.66 -1.483,-2.846c0,-0.627 0.164,-1.214 0.452,-1.721c1.643,2.07 4.099,3.431 6.868,3.575c-0.057,-0.249 -0.087,-0.513 -0.087,-0.78c0,-1.889 1.492,-3.42 3.333,-3.42c0.957,0 1.823,0.416 2.43,1.08c0.76,-0.153 1.473,-0.438 2.118,-0.83c-0.25,0.797 -0.778,1.469 -1.467,1.891c0.675,-0.08 1.317,-0.264 1.914,-0.537c-0.447,0.686 -1.01,1.287 -1.662,1.77l0,-0.001Z" style="fill:#fff;"/></g><g><path d="M350,48c0,-1.591 -0.632,-3.117 -1.757,-4.243c-1.126,-1.125 -2.652,-1.757 -4.243,-1.757c-4.724,0 -11.276,0 -16,0c-1.591,0 -3.117,0.632 -4.243,1.757c-1.125,1.126 -1.757,2.652 -1.757,4.243c0,4.724 0,11.276 0,16c0,1.591 0.632,3.117 1.757,4.243c1.126,1.125 2.652,1.757 4.243,1.757c4.724,0 11.276,0 16,0c1.591,0 3.117,-0.632 4.243,-1.757c1.125,-1.126 1.757,-2.652 1.757,-4.243c0,-4.724 0,-11.276 0,-16Z" style="fill:#32599c;"/><path id="facebook" d="M336.653,63.504l-3.06,0l0,-6.864l-2.594,0l0,-2.622l2.595,0l0,-1.984c0,-2.281 1.543,-3.534 3.827,-3.534c1.095,0 2.054,0.066 2.328,0.099l0,2.419l-1.622,0c-1.242,0 -1.474,0.526 -1.474,1.298l0,1.702l2.972,0l-0.385,2.622l-2.587,0l0,6.864Z" style="fill:#fff;"/></g><g><path d="M382,48c0,-1.591 -0.632,-3.117 -1.757,-4.243c-1.126,-1.125 -2.652,-1.757 -4.243,-1.757c-4.724,0 -11.276,0 -16,0c-1.591,0 -3.117,0.632 -4.243,1.757c-1.125,1.126 -1.757,2.652 -1.757,4.243c0,4.724 0,11.276 0,16c0,1.591 0.632,3.117 1.757,4.243c1.126,1.125 2.652,1.757 4.243,1.757c4.724,0 11.276,0 16,0c1.591,0 3.117,-0.632 4.243,-1.757c1.125,-1.126 1.757,-2.652 1.757,-4.243c0,-4.724 0,-11.276 0,-16Z" style="fill:#f03b2c;"/><g id="Google-Plus"><path d="M366.623,55.773l4.596,0l0,0.367c0,0.836 -0.099,1.576 -0.296,2.219c-0.192,0.596 -0.516,1.153 -0.972,1.672c-1.033,1.162 -2.346,1.743 -3.941,1.743c-1.556,0 -2.888,-0.562 -3.998,-1.686c-1.109,-1.128 -1.664,-2.483 -1.664,-4.063c0,-1.613 0.564,-2.982 1.693,-4.106c1.129,-1.129 2.502,-1.693 4.121,-1.693c0.869,0 1.681,0.178 2.435,0.533c0.72,0.356 1.428,0.932 2.125,1.729l-1.196,1.146c-0.913,-1.216 -2.024,-1.823 -3.336,-1.823c-1.176,0 -2.163,0.406 -2.96,1.217c-0.798,0.798 -1.196,1.797 -1.196,2.997c0,1.239 0.444,2.26 1.333,3.062c0.83,0.744 1.731,1.116 2.701,1.116c0.826,0 1.568,-0.278 2.226,-0.835c0.658,-0.562 1.025,-1.234 1.102,-2.017l-2.773,0l0,-1.578Z" style="fill:#fff;fill-rule:nonzero;"/><path d="M372.65,55.713l1.908,0l0,-1.907l1.196,0l0,1.907l1.898,0l0,1.197l-1.898,0l0,1.907l-1.196,0l0,-1.907l-1.908,0l0,-1.197Z" style="fill:#fff;fill-rule:nonzero;"/></g></g><g><path d="M446,48c0,-1.591 -0.632,-3.117 -1.757,-4.243c-1.126,-1.125 -2.652,-1.757 -4.243,-1.757c-4.724,0 -11.276,0 -16,0c-1.591,0 -3.117,0.632 -4.243,1.757c-1.125,1.126 -1.757,2.652 -1.757,4.243c0,4.724 0,11.276 0,16c0,1.591 0.632,3.117 1.757,4.243c1.126,1.125 2.652,1.757 4.243,1.757c4.724,0 11.276,0 16,0c1.591,0 3.117,-0.632 4.243,-1.757c1.125,-1.126 1.757,-2.652 1.757,-4.243c0,-4.724 0,-11.276 0,-16Z" style="fill:#d13a8d;"/><path id="instagram" d="M437.156,63.549l-10.313,0c-1.294,0 -2.343,-1.049 -2.343,-2.343l0,-10.313c0,-1.294 1.049,-2.343 2.343,-2.343l10.313,0c1.294,0 2.343,1.049 2.343,2.343l0,10.313c0,1.294 -1.049,2.343 -2.343,2.343Zm-9.328,-8.749l-1.453,0l0,5.937c0,0.518 0.42,0.938 0.937,0.938l9.375,0c0.517,0 0.937,-0.42 0.937,-0.938l0,-5.937l-1.453,0c0.12,0.398 0.203,0.812 0.203,1.25c0,2.416 -1.958,4.375 -4.374,4.375c-2.417,0 -4.375,-1.959 -4.375,-4.375c0,-0.438 0.083,-0.852 0.203,-1.25Zm4.172,-1.25c-1.381,0 -2.5,1.119 -2.5,2.5c0,1.38 1.119,2.5 2.5,2.5c1.38,0 2.5,-1.12 2.5,-2.5c0,-1.381 -1.12,-2.5 -2.5,-2.5Zm4.687,-3.125l-0.625,0c-0.518,0 -0.938,0.42 -0.938,0.937l0,0.625c0,0.518 0.42,0.938 0.938,0.938l0.625,0c0.517,0 0.937,-0.42 0.937,-0.938l0,-0.625c0,-0.517 -0.419,-0.937 -0.937,-0.937Z" style="fill:#fff;"/></g><g><path d="M414,48c0,-1.591 -0.632,-3.117 -1.757,-4.243c-1.126,-1.125 -2.652,-1.757 -4.243,-1.757c-4.724,0 -11.276,0 -16,0c-1.591,0 -3.117,0.632 -4.243,1.757c-1.125,1.126 -1.757,2.652 -1.757,4.243c0,4.724 0,11.276 0,16c0,1.591 0.632,3.117 1.757,4.243c1.126,1.125 2.652,1.757 4.243,1.757c4.724,0 11.276,0 16,0c1.591,0 3.117,-0.632 4.243,-1.757c1.125,-1.126 1.757,-2.652 1.757,-4.243c0,-4.724 0,-11.276 0,-16Z" style="fill:#00a300;"/><path id="whatsapp" d="M401.608,59.725c-0.427,-0.11 -1.426,-0.479 -1.791,-0.662c-0.629,-0.315 -1.197,-0.751 -1.842,-1.413c-0.955,-0.979 -1.672,-2.075 -1.874,-2.862c-0.073,-0.283 -0.082,-0.375 -0.07,-0.701c0.024,-0.613 0.206,-1.052 0.62,-1.489c0.27,-0.286 0.358,-0.32 0.817,-0.312c0.54,0.01 0.476,-0.065 0.974,1.134c0.172,0.412 0.322,0.789 0.334,0.839c0.033,0.135 -0.104,0.383 -0.41,0.741c-0.324,0.378 -0.324,0.383 -0.002,0.854c0.449,0.656 0.903,1.114 1.499,1.513c0.315,0.21 1.026,0.559 1.194,0.587c0.103,0.016 0.128,0.004 0.256,-0.13c0.078,-0.082 0.269,-0.307 0.424,-0.501c0.286,-0.358 0.33,-0.396 0.47,-0.4c0.092,-0.002 0.689,0.261 1.413,0.622c0.589,0.294 0.596,0.302 0.562,0.653c-0.022,0.227 -0.112,0.582 -0.18,0.71c-0.07,0.131 -0.304,0.363 -0.499,0.495c-0.599,0.407 -1.179,0.506 -1.895,0.322l0,0Z" style="fill:#fff;"/><path id="whatsapp1" d="M401.13,63.663c2.255,-0.317 4.303,-1.654 5.526,-3.606c0.576,-0.92 0.945,-1.936 1.101,-3.033c0.078,-0.546 0.077,-1.582 -0.002,-2.116c-0.248,-1.681 -1,-3.177 -2.204,-4.384c-2.061,-2.068 -5.051,-2.811 -7.868,-1.957c-2.238,0.678 -4.141,2.454 -4.994,4.661c-0.876,2.267 -0.598,4.888 0.737,6.953l0.241,0.373l-0.48,1.418c-0.264,0.779 -0.467,1.417 -0.451,1.417c0.017,0 0.688,-0.208 1.491,-0.463l1.461,-0.463l0.281,0.161c0.544,0.312 0.618,0.35 0.967,0.497c1.315,0.556 2.767,0.743 4.194,0.542l0,0Z" style="fill:none;stroke:#fff;stroke-width:1.5px;"/></g><path id="twitter1" d="M16.194,41.001c0.7,0.014 1.397,0.066 2.089,0.172c1.401,0.214 2.769,0.629 4.053,1.229c1.474,0.689 2.833,1.619 4.011,2.742c1.22,1.163 2.242,2.53 3.011,4.03c0.644,1.256 1.108,2.602 1.373,3.988c0.312,1.623 0.353,3.298 0.123,4.935c-0.213,1.525 -0.665,3.016 -1.334,4.404c-0.785,1.627 -1.866,3.109 -3.173,4.355c-1.354,1.291 -2.948,2.327 -4.679,3.035c-1.795,0.734 -3.729,1.109 -5.668,1.109c-1.939,0 -3.873,-0.375 -5.668,-1.109c-1.731,-0.708 -3.325,-1.744 -4.679,-3.035c-1.307,-1.246 -2.388,-2.728 -3.173,-4.355c-0.669,-1.388 -1.121,-2.879 -1.334,-4.404c-0.23,-1.637 -0.189,-3.312 0.123,-4.935c0.265,-1.386 0.729,-2.732 1.373,-3.988c0.769,-1.5 1.791,-2.867 3.011,-4.03c1.178,-1.123 2.537,-2.053 4.011,-2.742c1.284,-0.6 2.652,-1.015 4.053,-1.229c0.692,-0.106 1.389,-0.158 2.089,-0.172c0.194,-0.001 0.194,-0.001 0.388,0Zm-0.35,3c-0.56,0.011 -1.119,0.053 -1.673,0.138c-1.119,0.171 -2.212,0.502 -3.237,0.981c-2.364,1.105 -4.337,2.986 -5.555,5.293c-0.526,0.996 -0.909,2.065 -1.135,3.168c-0.276,1.345 -0.318,2.739 -0.127,4.099c0.17,1.219 0.531,2.409 1.065,3.518c0.629,1.303 1.494,2.489 2.541,3.487c1.084,1.033 2.359,1.862 3.745,2.429c1.435,0.587 2.982,0.886 4.532,0.886c1.55,0 3.097,-0.299 4.532,-0.886c1.386,-0.567 2.661,-1.396 3.745,-2.429c1.047,-0.998 1.912,-2.184 2.541,-3.487c0.534,-1.109 0.895,-2.299 1.065,-3.518c0.191,-1.36 0.149,-2.754 -0.127,-4.099c-0.226,-1.103 -0.609,-2.172 -1.135,-3.168c-1.218,-2.307 -3.191,-4.188 -5.555,-5.293c-1.025,-0.479 -2.118,-0.81 -3.237,-0.981c-0.554,-0.085 -1.113,-0.127 -1.673,-0.138c-0.156,-0.001 -0.155,-0.001 -0.312,0Zm6.614,8.599c0.006,0.147 0.008,0.294 0.008,0.443c0,4.52 -3.35,9.732 -9.478,9.732c-1.883,0 -3.633,-0.565 -5.108,-1.538c0.261,0.03 0.525,0.048 0.795,0.048c1.56,0 2.997,-0.546 4.138,-1.464c-1.458,-0.023 -2.689,-1.016 -3.113,-2.375c0.203,0.043 0.413,0.063 0.628,0.063c0.302,0 0.597,-0.043 0.878,-0.12c-1.525,-0.315 -2.674,-1.698 -2.674,-3.354c0,-0.019 0,-0.027 0,-0.043c0.45,0.255 0.964,0.41 1.51,0.428c-0.895,-0.615 -1.483,-1.661 -1.483,-2.847c0,-0.627 0.164,-1.214 0.452,-1.72c1.642,2.07 4.099,3.43 6.867,3.575c-0.057,-0.25 -0.086,-0.514 -0.086,-0.781c0,-1.889 1.492,-3.42 3.332,-3.42c0.958,0 1.824,0.416 2.431,1.08c0.76,-0.153 1.473,-0.437 2.117,-0.83c-0.249,0.798 -0.777,1.469 -1.466,1.891c0.675,-0.08 1.317,-0.264 1.914,-0.537c-0.447,0.686 -1.011,1.287 -1.662,1.77l0,-0.001Z" style="fill-opacity:0.6;"/><path id="facebook1" d="M48.194,41.001c0.7,0.014 1.397,0.066 2.089,0.172c1.401,0.214 2.77,0.629 4.053,1.229c1.475,0.689 2.834,1.619 4.011,2.742c1.22,1.163 2.243,2.53 3.011,4.03c0.644,1.256 1.108,2.602 1.374,3.988c0.311,1.623 0.352,3.298 0.123,4.935c-0.214,1.525 -0.666,3.016 -1.335,4.404c-0.784,1.627 -1.865,3.109 -3.173,4.355c-1.354,1.291 -2.947,2.327 -4.679,3.035c-1.795,0.734 -3.729,1.109 -5.668,1.109c-1.939,0 -3.872,-0.375 -5.667,-1.109c-1.732,-0.708 -3.326,-1.744 -4.68,-3.035c-1.307,-1.246 -2.388,-2.728 -3.173,-4.355c-0.669,-1.388 -1.12,-2.879 -1.334,-4.404c-0.229,-1.637 -0.188,-3.312 0.123,-4.935c0.266,-1.386 0.73,-2.732 1.373,-3.988c0.769,-1.5 1.792,-2.867 3.011,-4.03c1.178,-1.123 2.537,-2.053 4.011,-2.742c1.284,-0.6 2.653,-1.015 4.053,-1.229c0.692,-0.106 1.39,-0.158 2.09,-0.172c0.194,-0.001 0.193,-0.001 0.387,0Zm-0.349,3c-0.561,0.011 -1.12,0.053 -1.674,0.138c-1.119,0.171 -2.212,0.502 -3.237,0.981c-2.364,1.105 -4.337,2.986 -5.555,5.293c-0.525,0.996 -0.909,2.065 -1.135,3.168c-0.275,1.345 -0.318,2.739 -0.127,4.099c0.171,1.219 0.531,2.409 1.066,3.518c0.628,1.303 1.494,2.489 2.541,3.487c1.083,1.033 2.358,1.862 3.744,2.429c1.436,0.587 2.982,0.886 4.532,0.886c1.551,0 3.097,-0.299 4.532,-0.886c1.386,-0.567 2.662,-1.396 3.745,-2.429c1.047,-0.998 1.913,-2.184 2.541,-3.487c0.534,-1.109 0.895,-2.299 1.066,-3.518c0.19,-1.36 0.148,-2.754 -0.128,-4.099c-0.226,-1.103 -0.609,-2.172 -1.135,-3.168c-1.218,-2.307 -3.19,-4.188 -5.554,-5.293c-1.026,-0.479 -2.119,-0.81 -3.237,-0.981c-0.555,-0.085 -1.113,-0.127 -1.674,-0.138c-0.156,-0.001 -0.155,-0.001 -0.311,0Zm0.809,19.503l-3.06,0l0,-6.864l-2.594,0l0,-2.622l2.595,0l0,-1.983c0,-2.282 1.543,-3.535 3.827,-3.535c1.094,0 2.054,0.066 2.328,0.099l0,2.42l-1.622,-0.001c-1.242,0 -1.474,0.526 -1.474,1.298l0,1.703l2.972,0l-0.385,2.622l-2.587,0l0,6.863Z" style="fill-opacity:0.6;"/><path id="instagram1" d="M80.194,41.001c0.7,0.014 1.397,0.066 2.09,0.172c1.4,0.214 2.769,0.629 4.053,1.229c1.474,0.689 2.833,1.619 4.01,2.742c1.22,1.163 2.243,2.53 3.011,4.03c0.644,1.256 1.108,2.602 1.374,3.988c0.311,1.623 0.352,3.298 0.123,4.935c-0.214,1.525 -0.665,3.016 -1.335,4.404c-0.784,1.627 -1.865,3.109 -3.173,4.355c-1.353,1.291 -2.947,2.327 -4.679,3.035c-1.795,0.734 -3.729,1.109 -5.667,1.109c-1.939,0 -3.873,-0.375 -5.668,-1.109c-1.732,-0.708 -3.326,-1.744 -4.679,-3.035c-1.308,-1.246 -2.389,-2.728 -3.173,-4.355c-0.669,-1.388 -1.121,-2.879 -1.335,-4.404c-0.229,-1.637 -0.188,-3.312 0.123,-4.935c0.266,-1.386 0.73,-2.732 1.374,-3.988c0.768,-1.5 1.791,-2.867 3.011,-4.03c1.177,-1.123 2.536,-2.053 4.01,-2.742c1.284,-0.6 2.653,-1.015 4.053,-1.229c0.693,-0.106 1.39,-0.158 2.09,-0.172c0.194,-0.001 0.194,-0.001 0.387,0Zm-0.349,3c-0.561,0.011 -1.119,0.053 -1.674,0.138c-1.119,0.171 -2.212,0.502 -3.237,0.981c-2.364,1.105 -4.337,2.986 -5.555,5.293c-0.525,0.996 -0.909,2.065 -1.134,3.168c-0.276,1.345 -0.318,2.739 -0.128,4.099c0.171,1.219 0.532,2.409 1.066,3.518c0.628,1.303 1.494,2.489 2.541,3.487c1.083,1.033 2.358,1.862 3.744,2.429c1.436,0.587 2.982,0.886 4.533,0.886c1.55,0 3.096,-0.299 4.532,-0.886c1.386,-0.567 2.661,-1.396 3.744,-2.429c1.047,-0.998 1.913,-2.184 2.541,-3.487c0.534,-1.109 0.895,-2.299 1.066,-3.518c0.19,-1.36 0.148,-2.754 -0.127,-4.099c-0.226,-1.103 -0.61,-2.172 -1.135,-3.168c-1.218,-2.307 -3.191,-4.188 -5.555,-5.293c-1.025,-0.479 -2.118,-0.81 -3.237,-0.981c-0.555,-0.085 -1.113,-0.127 -1.674,-0.138c-0.155,-0.001 -0.155,-0.001 -0.311,0Zm5.311,19.499l-10.312,0c-1.294,0 -2.344,-1.049 -2.344,-2.344l0,-10.312c0,-1.294 1.05,-2.344 2.344,-2.344l10.312,0c1.295,0 2.344,1.05 2.344,2.344l0,10.312c0,1.295 -1.049,2.344 -2.344,2.344Zm-9.328,-8.75l-1.453,0l0,5.938c0,0.518 0.42,0.937 0.938,0.937l9.374,0c0.518,0 0.938,-0.419 0.938,-0.937l0,-5.938l-1.453,0c0.119,0.399 0.203,0.813 0.203,1.25c0,2.416 -1.959,4.375 -4.375,4.375c-2.416,0 -4.375,-1.959 -4.375,-4.375c0,-0.437 0.084,-0.851 0.203,-1.25Zm4.172,-1.25c-1.381,0 -2.5,1.12 -2.5,2.5c0,1.381 1.119,2.5 2.5,2.5c1.381,0 2.5,-1.119 2.5,-2.5c0,-1.38 -1.119,-2.5 -2.5,-2.5Zm4.687,-3.125l-0.625,0c-0.518,0 -0.937,0.42 -0.937,0.938l0,0.625c0,0.517 0.42,0.937 0.937,0.937l0.625,0c0.518,0 0.938,-0.42 0.938,-0.937l0,-0.625c0,-0.518 -0.42,-0.938 -0.938,-0.938Z" style="fill-opacity:0.6;"/><path id="snapchat" d="M112.195,41.001c0.699,0.014 1.397,0.066 2.089,0.172c1.401,0.214 2.769,0.629 4.053,1.229c1.474,0.689 2.833,1.619 4.011,2.742c1.219,1.163 2.242,2.53 3.011,4.03c0.643,1.256 1.107,2.602 1.373,3.988c0.311,1.623 0.352,3.298 0.123,4.935c-0.214,1.525 -0.665,3.016 -1.334,4.404c-0.785,1.627 -1.866,3.109 -3.173,4.355c-1.354,1.291 -2.948,2.327 -4.68,3.035c-1.795,0.734 -3.728,1.109 -5.667,1.109c-1.939,0 -3.873,-0.375 -5.668,-1.109c-1.732,-0.708 -3.325,-1.744 -4.679,-3.035c-1.308,-1.246 -2.388,-2.728 -3.173,-4.355c-0.669,-1.388 -1.121,-2.879 -1.335,-4.404c-0.229,-1.637 -0.188,-3.312 0.123,-4.935c0.266,-1.386 0.73,-2.732 1.374,-3.988c0.768,-1.5 1.791,-2.867 3.011,-4.03c1.177,-1.123 2.536,-2.053 4.011,-2.742c1.283,-0.6 2.652,-1.015 4.053,-1.229c0.692,-0.106 1.389,-0.158 2.089,-0.172c0.194,-0.001 0.194,-0.001 0.388,0Zm-0.35,3c-0.561,0.011 -1.119,0.053 -1.674,0.138c-1.118,0.171 -2.211,0.502 -3.237,0.981c-2.363,1.105 -4.336,2.986 -5.554,5.293c-0.526,0.996 -0.909,2.065 -1.135,3.168c-0.276,1.345 -0.318,2.739 -0.128,4.099c0.171,1.219 0.532,2.409 1.066,3.518c0.628,1.303 1.494,2.489 2.541,3.487c1.084,1.033 2.359,1.862 3.745,2.429c1.435,0.587 2.981,0.886 4.532,0.886c1.55,0 3.097,-0.299 4.532,-0.886c1.386,-0.567 2.661,-1.396 3.745,-2.429c1.046,-0.998 1.912,-2.184 2.54,-3.487c0.535,-1.109 0.895,-2.299 1.066,-3.518c0.191,-1.36 0.148,-2.754 -0.127,-4.099c-0.226,-1.103 -0.61,-2.172 -1.135,-3.168c-1.218,-2.307 -3.191,-4.188 -5.555,-5.293c-1.025,-0.479 -2.118,-0.81 -3.237,-0.981c-0.554,-0.085 -1.113,-0.127 -1.674,-0.138c-0.155,-0.001 -0.155,-0.001 -0.311,0Zm6.083,18.714l-0.021,0c-0.088,0 -0.212,-0.016 -0.369,-0.046c-0.28,-0.055 -0.594,-0.106 -0.992,-0.106c-0.233,0 -0.474,0.021 -0.716,0.061c-0.495,0.083 -0.916,0.379 -1.362,0.694c-0.645,0.455 -1.314,0.928 -2.355,0.928c-0.045,0 -0.089,-0.001 -0.134,-0.004c-0.029,0.002 -0.059,0.004 -0.088,0.004c-1.041,0 -1.709,-0.472 -2.356,-0.929c-0.446,-0.316 -0.867,-0.613 -1.362,-0.695c-0.243,-0.041 -0.484,-0.06 -0.716,-0.06c-0.419,0 -0.751,0.065 -0.992,0.112c-0.147,0.029 -0.273,0.053 -0.37,0.053c-0.101,0 -0.209,-0.021 -0.257,-0.183c-0.042,-0.141 -0.071,-0.276 -0.1,-0.407c-0.074,-0.338 -0.126,-0.546 -0.268,-0.568c-1.651,-0.255 -2.124,-0.603 -2.229,-0.85c-0.015,-0.035 -0.024,-0.07 -0.026,-0.105c-0.005,-0.095 0.063,-0.178 0.156,-0.194c2.538,-0.418 3.676,-3.012 3.723,-3.123c0.001,-0.002 0.003,-0.005 0.004,-0.009c0.155,-0.315 0.185,-0.588 0.09,-0.812c-0.174,-0.411 -0.742,-0.59 -1.118,-0.71c-0.092,-0.029 -0.179,-0.057 -0.247,-0.084c-0.751,-0.297 -0.813,-0.601 -0.784,-0.756c0.05,-0.265 0.404,-0.449 0.689,-0.449c0.079,0 0.147,0.015 0.206,0.042c0.337,0.158 0.641,0.238 0.904,0.238c0.363,0 0.521,-0.152 0.541,-0.172c-0.01,-0.172 -0.021,-0.351 -0.033,-0.536c-0.075,-1.2 -0.169,-2.691 0.211,-3.542c1.137,-2.552 3.55,-2.75 4.262,-2.75c0.018,0 0.313,-0.003 0.313,-0.003l0.043,0c0.713,0 3.131,0.199 4.27,2.752c0.38,0.851 0.285,2.343 0.21,3.542l-0.003,0.052c-0.01,0.166 -0.02,0.329 -0.029,0.485c0.018,0.019 0.164,0.158 0.493,0.171c0.249,-0.009 0.537,-0.089 0.852,-0.236c0.092,-0.043 0.195,-0.052 0.265,-0.052c0.106,0 0.214,0.021 0.304,0.058l0.006,0.002c0.255,0.091 0.422,0.27 0.425,0.456c0.004,0.176 -0.131,0.44 -0.789,0.7c-0.068,0.026 -0.155,0.055 -0.248,0.084c-0.376,0.119 -0.944,0.299 -1.118,0.71c-0.095,0.224 -0.065,0.497 0.091,0.812c0.001,0.003 0.003,0.006 0.003,0.009c0.048,0.111 1.184,2.704 3.724,3.122c0.094,0.015 0.161,0.099 0.155,0.194c-0.002,0.036 -0.01,0.071 -0.026,0.106c-0.105,0.245 -0.578,0.593 -2.229,0.848c-0.134,0.021 -0.187,0.197 -0.267,0.565c-0.029,0.134 -0.06,0.266 -0.1,0.405c-0.035,0.121 -0.11,0.176 -0.236,0.176Z" style="fill-opacity:0.6;"/><g id="WhatsApp"><path id="whatsapp2" d="M145.131,63.683c2.255,-0.317 4.303,-1.654 5.526,-3.606c0.576,-0.92 0.945,-1.936 1.101,-3.033c0.078,-0.546 0.077,-1.582 -0.002,-2.115c-0.248,-1.682 -1,-3.178 -2.204,-4.385c-2.061,-2.068 -5.051,-2.811 -7.868,-1.957c-2.238,0.678 -4.141,2.454 -4.994,4.661c-0.876,2.267 -0.598,4.888 0.737,6.953l0.241,0.373l-0.48,1.418c-0.264,0.779 -0.467,1.417 -0.451,1.417c0.017,0 0.688,-0.208 1.491,-0.463l1.461,-0.463l0.281,0.161c0.544,0.312 0.618,0.35 0.967,0.497c1.315,0.556 2.767,0.743 4.194,0.542l0,0Zm0.687,-3.425c-0.486,-0.125 -1.625,-0.546 -2.041,-0.755c-0.716,-0.359 -1.364,-0.855 -2.099,-1.609c-1.088,-1.116 -1.905,-2.365 -2.136,-3.262c-0.082,-0.323 -0.093,-0.428 -0.079,-0.798c0.027,-0.699 0.235,-1.2 0.706,-1.697c0.308,-0.327 0.408,-0.365 0.931,-0.356c0.615,0.011 0.542,-0.074 1.111,1.292c0.195,0.469 0.366,0.9 0.38,0.956c0.037,0.155 -0.119,0.437 -0.467,0.844c-0.369,0.432 -0.369,0.437 -0.003,0.973c0.512,0.749 1.029,1.27 1.709,1.724c0.359,0.24 1.168,0.638 1.36,0.67c0.117,0.019 0.145,0.004 0.292,-0.148c0.089,-0.093 0.307,-0.35 0.483,-0.572c0.326,-0.407 0.377,-0.45 0.536,-0.455c0.104,-0.003 0.785,0.297 1.61,0.709c0.671,0.335 0.679,0.344 0.64,0.743c-0.025,0.26 -0.127,0.664 -0.205,0.81c-0.08,0.149 -0.346,0.413 -0.569,0.565c-0.682,0.463 -1.343,0.575 -2.159,0.366l0,0Z" style="fill-opacity:0.6;"/><path d="M272.194,40.981l0.193,0.004l0.192,0.006l0.192,0.009l0.192,0.011l0.19,0.013l0.19,0.016l0.19,0.018l0.188,0.02l0.188,0.023l0.188,0.025l0.186,0.027l0.186,0.03l0.185,0.032l0.184,0.034l0.183,0.036l0.183,0.039l0.182,0.041l0.181,0.043l0.18,0.045l0.179,0.047l0.178,0.05l0.178,0.051l0.176,0.054l0.176,0.056l0.175,0.058l0.174,0.06l0.172,0.062l0.172,0.064l0.171,0.066l0.17,0.069l0.168,0.07l0.168,0.072l0.167,0.074l0.165,0.076l0.165,0.078l0.163,0.08l0.162,0.082l0.161,0.084l0.16,0.086l0.159,0.087l0.158,0.09l0.156,0.091l0.156,0.093l0.154,0.095l0.152,0.097l0.152,0.098l0.15,0.1l0.149,0.102l0.148,0.104l0.146,0.106l0.145,0.107l0.144,0.109l0.142,0.11l0.141,0.112l0.14,0.114l0.138,0.116l0.137,0.117l0.136,0.119l0.133,0.12l0.133,0.122l0.131,0.123l0.129,0.125l0.129,0.127l0.126,0.128l0.125,0.129l0.123,0.131l0.122,0.133l0.121,0.134l0.118,0.135l0.117,0.137l0.116,0.138l0.114,0.14l0.112,0.141l0.111,0.142l0.108,0.144l0.108,0.145l0.105,0.146l0.104,0.148l0.102,0.149l0.1,0.15l0.099,0.152l0.096,0.153l0.095,0.154l0.093,0.155l0.091,0.156l0.09,0.158l0.087,0.159l0.086,0.16l0.084,0.161l0.082,0.162l0.08,0.163l0.078,0.165l0.076,0.165l0.074,0.167l0.072,0.168l0.071,0.169l0.068,0.169l0.066,0.171l0.064,0.172l0.062,0.173l0.06,0.173l0.058,0.175l0.056,0.176l0.054,0.176l0.052,0.178l0.049,0.178l0.047,0.179l0.046,0.18l0.043,0.181l0.04,0.182l0.039,0.183l0.036,0.183l0.035,0.184l0.031,0.185l0.03,0.186l0.027,0.187l0.025,0.187l0.023,0.188l0.02,0.188l0.019,0.19l0.015,0.19l0.014,0.19l0.01,0.192l0.009,0.192l0.006,0.192l0.004,0.193l0.001,0.194l-0.001,0.194l-0.004,0.193l-0.006,0.193l-0.009,0.192l-0.01,0.191l-0.014,0.191l-0.015,0.19l-0.019,0.189l-0.02,0.189l-0.023,0.188l-0.025,0.187l-0.027,0.186l-0.03,0.186l-0.031,0.185l-0.035,0.184l-0.036,0.184l-0.039,0.182l-0.04,0.182l-0.043,0.181l-0.046,0.18l-0.047,0.179l-0.049,0.179l-0.052,0.177l-0.054,0.177l-0.056,0.175l-0.058,0.175l-0.06,0.174l-0.062,0.172l-0.064,0.172l-0.066,0.171l-0.068,0.17l-0.071,0.168l-0.072,0.168l-0.074,0.167l-0.076,0.165l-0.078,0.165l-0.08,0.163l-0.082,0.162l-0.084,0.162l-0.086,0.16l-0.087,0.158l-0.09,0.158l-0.091,0.156l-0.093,0.156l-0.095,0.154l-0.096,0.153l-0.099,0.151l-0.1,0.15l-0.102,0.149l-0.104,0.148l-0.105,0.146l-0.108,0.146l-0.108,0.143l-0.111,0.143l-0.112,0.141l-0.114,0.139l-0.116,0.138l-0.117,0.137l-0.118,0.136l-0.121,0.134l-0.122,0.132l-0.123,0.131l-0.125,0.13l-0.126,0.128l-0.129,0.126l-0.129,0.125l-0.131,0.124l-0.133,0.121l-0.133,0.121l-0.136,0.119l-0.137,0.117l-0.138,0.115l-0.14,0.114l-0.141,0.112l-0.142,0.111l-0.144,0.109l-0.145,0.107l-0.146,0.105l-0.148,0.104l-0.149,0.102l-0.15,0.1l-0.152,0.099l-0.152,0.096l-0.154,0.095l-0.156,0.093l-0.156,0.092l-0.158,0.089l-0.159,0.088l-0.16,0.085l-0.161,0.084l-0.162,0.082l-0.163,0.08l-0.165,0.078l-0.165,0.076l-0.167,0.074l-0.168,0.073l-0.168,0.07l-0.17,0.068l-0.171,0.066l-0.172,0.064l-0.172,0.062l-0.174,0.06l-0.175,0.058l-0.176,0.056l-0.176,0.054l-0.178,0.052l-0.178,0.049l-0.179,0.048l-0.18,0.045l-0.181,0.043l-0.182,0.041l-0.183,0.038l-0.183,0.037l-0.184,0.034l-0.185,0.032l-0.186,0.029l-0.186,0.028l-0.188,0.025l-0.188,0.022l-0.188,0.021l-0.19,0.018l-0.19,0.015l-0.19,0.014l-0.192,0.011l-0.192,0.008l-0.192,0.006l-0.193,0.004l-0.194,0.001l-128,0l-0.194,-0.001l-0.193,-0.004l-0.192,-0.006l-0.192,-0.008l-0.192,-0.011l-0.19,-0.014l-0.19,-0.015l-0.19,-0.018l-0.188,-0.021l-0.188,-0.022l-0.188,-0.025l-0.186,-0.028l-0.186,-0.029l-0.185,-0.032l-0.184,-0.034l-0.183,-0.037l-0.183,-0.038l-0.182,-0.041l-0.181,-0.043l-0.18,-0.045l-0.179,-0.048l-0.178,-0.049l-0.178,-0.052l-0.176,-0.054l-0.176,-0.056l-0.175,-0.058l-0.174,-0.06l-0.172,-0.062l-0.172,-0.064l-0.171,-0.066l-0.17,-0.068l-0.168,-0.07l-0.168,-0.073l-0.167,-0.074l-0.165,-0.076l-0.165,-0.078l-0.163,-0.08l-0.162,-0.082l-0.161,-0.084l-0.16,-0.085l-0.159,-0.088l-0.158,-0.089l-0.156,-0.092l-0.156,-0.093l-0.154,-0.095l-0.152,-0.096l-0.152,-0.099l-0.15,-0.1l-0.149,-0.102l-0.148,-0.104l-0.146,-0.105l-0.145,-0.107l-0.144,-0.109l-0.142,-0.111l-0.141,-0.112l-0.14,-0.114l-0.138,-0.115l-0.137,-0.117l-0.136,-0.119l-0.133,-0.121l-0.133,-0.121l-0.131,-0.124l-0.129,-0.125l-0.129,-0.126l-0.126,-0.128l-0.125,-0.13l-0.123,-0.131l-0.122,-0.132l-0.121,-0.134l-0.118,-0.136l-0.117,-0.137l-0.116,-0.138l-0.114,-0.139l-0.112,-0.141l-0.111,-0.143l-0.108,-0.143l-0.108,-0.146l-0.105,-0.146l-0.104,-0.148l-0.102,-0.149l-0.1,-0.15l-0.099,-0.151l-0.096,-0.153l-0.095,-0.154l-0.093,-0.156l-0.091,-0.156l-0.09,-0.158l-0.087,-0.158l-0.086,-0.16l-0.084,-0.162l-0.082,-0.162l-0.08,-0.163l-0.078,-0.165l-0.076,-0.165l-0.074,-0.167l-0.072,-0.168l-0.071,-0.168l-0.068,-0.17l-0.066,-0.171l-0.064,-0.172l-0.062,-0.172l-0.06,-0.174l-0.058,-0.175l-0.056,-0.175l-0.054,-0.177l-0.052,-0.177l-0.049,-0.179l-0.047,-0.179l-0.046,-0.18l-0.043,-0.181l-0.04,-0.182l-0.039,-0.182l-0.036,-0.184l-0.035,-0.184l-0.031,-0.185l-0.03,-0.186l-0.027,-0.186l-0.025,-0.187l-0.023,-0.188l-0.02,-0.189l-0.019,-0.189l-0.015,-0.19l-0.014,-0.191l-0.01,-0.191l-0.009,-0.192l-0.006,-0.193l-0.004,-0.193l-0.001,-0.194l0.001,-0.194l0.004,-0.193l0.006,-0.192l0.009,-0.192l0.01,-0.192l0.014,-0.19l0.015,-0.19l0.019,-0.19l0.02,-0.188l0.023,-0.188l0.025,-0.187l0.027,-0.187l0.03,-0.186l0.031,-0.185l0.035,-0.184l0.036,-0.183l0.039,-0.183l0.04,-0.182l0.043,-0.181l0.046,-0.18l0.047,-0.179l0.049,-0.178l0.052,-0.178l0.054,-0.176l0.056,-0.176l0.058,-0.175l0.06,-0.173l0.062,-0.173l0.064,-0.172l0.066,-0.171l0.068,-0.169l0.071,-0.169l0.072,-0.168l0.074,-0.167l0.076,-0.165l0.078,-0.165l0.08,-0.163l0.082,-0.162l0.084,-0.161l0.086,-0.16l0.087,-0.159l0.09,-0.158l0.091,-0.156l0.093,-0.155l0.095,-0.154l0.096,-0.153l0.099,-0.152l0.1,-0.15l0.102,-0.149l0.104,-0.148l0.105,-0.146l0.108,-0.145l0.108,-0.144l0.111,-0.142l0.112,-0.141l0.114,-0.14l0.116,-0.138l0.117,-0.137l0.118,-0.135l0.121,-0.134l0.122,-0.133l0.123,-0.131l0.125,-0.129l0.126,-0.128l0.129,-0.127l0.129,-0.125l0.131,-0.123l0.133,-0.122l0.133,-0.12l0.136,-0.119l0.137,-0.117l0.138,-0.116l0.14,-0.114l0.141,-0.112l0.142,-0.11l0.144,-0.109l0.145,-0.107l0.146,-0.106l0.148,-0.104l0.149,-0.102l0.15,-0.1l0.152,-0.098l0.152,-0.097l0.154,-0.095l0.156,-0.093l0.156,-0.091l0.158,-0.09l0.159,-0.087l0.16,-0.086l0.161,-0.084l0.162,-0.082l0.163,-0.08l0.165,-0.078l0.165,-0.076l0.167,-0.074l0.168,-0.072l0.168,-0.07l0.17,-0.069l0.171,-0.066l0.172,-0.064l0.172,-0.062l0.174,-0.06l0.175,-0.058l0.176,-0.056l0.176,-0.054l0.178,-0.051l0.178,-0.05l0.179,-0.047l0.18,-0.045l0.181,-0.043l0.182,-0.041l0.183,-0.039l0.183,-0.036l0.184,-0.034l0.185,-0.032l0.186,-0.03l0.186,-0.027l0.188,-0.025l0.188,-0.023l0.188,-0.02l0.19,-0.018l0.19,-0.016l0.19,-0.013l0.192,-0.011l0.192,-0.009l0.192,-0.006l0.193,-0.004l0.194,-0.001l128,0l0.194,0.001Zm-128.185,2.999l-0.165,0.001l-0.155,0.003l-0.154,0.005l-0.154,0.007l-0.154,0.009l-0.152,0.01l-0.153,0.013l-0.151,0.014l-0.151,0.017l-0.151,0.018l-0.149,0.02l-0.149,0.022l-0.149,0.023l-0.148,0.026l-0.147,0.027l-0.146,0.029l-0.146,0.031l-0.145,0.033l-0.145,0.034l-0.144,0.036l-0.143,0.038l-0.142,0.039l-0.142,0.042l-0.141,0.042l-0.14,0.045l-0.139,0.046l-0.139,0.048l-0.138,0.05l-0.137,0.051l-0.137,0.053l-0.135,0.054l-0.135,0.056l-0.134,0.058l-0.133,0.059l-0.132,0.061l-0.132,0.063l-0.13,0.064l-0.13,0.065l-0.129,0.067l-0.128,0.069l-0.127,0.07l-0.126,0.071l-0.125,0.073l-0.124,0.075l-0.124,0.076l-0.122,0.077l-0.121,0.079l-0.12,0.08l-0.12,0.082l-0.118,0.083l-0.117,0.084l-0.116,0.086l-0.115,0.087l-0.115,0.089l-0.112,0.09l-0.112,0.091l-0.111,0.092l-0.11,0.094l-0.108,0.095l-0.108,0.097l-0.106,0.098l-0.105,0.098l-0.104,0.101l-0.102,0.101l-0.102,0.103l-0.1,0.103l-0.099,0.105l-0.097,0.107l-0.097,0.107l-0.095,0.108l-0.094,0.11l-0.092,0.111l-0.091,0.112l-0.09,0.113l-0.089,0.114l-0.087,0.115l-0.086,0.116l-0.084,0.117l-0.083,0.119l-0.082,0.119l-0.08,0.12l-0.079,0.121l-0.078,0.123l-0.076,0.123l-0.074,0.124l-0.073,0.125l-0.072,0.126l-0.07,0.127l-0.068,0.128l-0.067,0.129l-0.066,0.13l-0.064,0.13l-0.062,0.132l-0.061,0.132l-0.059,0.133l-0.058,0.134l-0.056,0.135l-0.054,0.136l-0.053,0.136l-0.051,0.137l-0.05,0.138l-0.048,0.139l-0.046,0.139l-0.045,0.14l-0.043,0.141l-0.041,0.142l-0.039,0.142l-0.038,0.143l-0.036,0.144l-0.035,0.145l-0.032,0.145l-0.031,0.146l-0.029,0.146l-0.027,0.147l-0.026,0.148l-0.023,0.149l-0.022,0.149l-0.02,0.15l-0.019,0.15l-0.016,0.151l-0.014,0.151l-0.013,0.153l-0.011,0.152l-0.008,0.154l-0.007,0.154l-0.005,0.154l-0.003,0.155l-0.001,0.156l0.001,0.156l0.003,0.155l0.005,0.154l0.007,0.154l0.008,0.154l0.011,0.153l0.013,0.152l0.014,0.151l0.016,0.151l0.019,0.151l0.02,0.149l0.022,0.15l0.023,0.148l0.026,0.148l0.027,0.147l0.029,0.147l0.031,0.145l0.032,0.146l0.035,0.144l0.036,0.144l0.038,0.143l0.039,0.142l0.041,0.142l0.043,0.141l0.045,0.14l0.046,0.14l0.048,0.138l0.05,0.138l0.051,0.137l0.053,0.137l0.054,0.135l0.056,0.135l0.058,0.134l0.059,0.133l0.061,0.133l0.062,0.131l0.064,0.13l0.066,0.13l0.067,0.129l0.068,0.128l0.07,0.127l0.072,0.126l0.073,0.125l0.074,0.124l0.076,0.124l0.078,0.122l0.079,0.121l0.08,0.12l0.082,0.12l0.083,0.118l0.084,0.117l0.086,0.116l0.087,0.116l0.089,0.114l0.09,0.113l0.091,0.112l0.092,0.11l0.094,0.11l0.095,0.108l0.097,0.108l0.097,0.106l0.099,0.105l0.1,0.104l0.102,0.102l0.102,0.102l0.104,0.1l0.105,0.099l0.106,0.097l0.108,0.097l0.108,0.095l0.11,0.094l0.111,0.092l0.112,0.092l0.113,0.09l0.114,0.088l0.115,0.087l0.116,0.086l0.117,0.085l0.118,0.083l0.12,0.081l0.12,0.081l0.121,0.078l0.122,0.078l0.124,0.076l0.124,0.074l0.125,0.073l0.126,0.072l0.127,0.07l0.128,0.068l0.129,0.067l0.13,0.066l0.13,0.064l0.132,0.062l0.132,0.061l0.133,0.059l0.134,0.058l0.135,0.056l0.135,0.054l0.137,0.053l0.137,0.051l0.138,0.05l0.139,0.048l0.139,0.046l0.14,0.045l0.141,0.043l0.142,0.041l0.142,0.04l0.143,0.037l0.144,0.036l0.145,0.035l0.145,0.032l0.146,0.031l0.146,0.029l0.147,0.027l0.148,0.026l0.149,0.024l0.149,0.021l0.149,0.02l0.151,0.019l0.151,0.016l0.151,0.014l0.153,0.013l0.152,0.011l0.154,0.008l0.154,0.007l0.154,0.005l0.155,0.003l0.165,0.001l127.981,0l0.166,-0.001l0.155,-0.003l0.154,-0.005l0.154,-0.007l0.154,-0.008l0.153,-0.011l0.152,-0.013l0.151,-0.014l0.151,-0.016l0.151,-0.019l0.149,-0.02l0.149,-0.021l0.149,-0.024l0.148,-0.026l0.147,-0.027l0.146,-0.029l0.146,-0.031l0.145,-0.032l0.145,-0.035l0.144,-0.036l0.143,-0.037l0.142,-0.04l0.142,-0.041l0.141,-0.043l0.14,-0.045l0.139,-0.046l0.139,-0.048l0.138,-0.05l0.137,-0.051l0.137,-0.053l0.135,-0.054l0.135,-0.056l0.134,-0.058l0.133,-0.059l0.132,-0.061l0.132,-0.062l0.13,-0.064l0.13,-0.066l0.129,-0.067l0.128,-0.068l0.127,-0.07l0.126,-0.072l0.125,-0.073l0.124,-0.074l0.124,-0.076l0.122,-0.078l0.121,-0.078l0.12,-0.081l0.12,-0.081l0.118,-0.083l0.117,-0.085l0.116,-0.086l0.115,-0.087l0.114,-0.088l0.113,-0.09l0.112,-0.092l0.111,-0.092l0.11,-0.094l0.108,-0.095l0.108,-0.097l0.106,-0.097l0.105,-0.099l0.104,-0.1l0.102,-0.102l0.102,-0.102l0.1,-0.104l0.099,-0.105l0.097,-0.106l0.097,-0.108l0.095,-0.108l0.094,-0.11l0.092,-0.11l0.091,-0.112l0.09,-0.113l0.089,-0.114l0.087,-0.115l0.086,-0.117l0.084,-0.117l0.083,-0.118l0.082,-0.12l0.08,-0.12l0.079,-0.121l0.078,-0.122l0.076,-0.124l0.074,-0.124l0.073,-0.125l0.072,-0.126l0.069,-0.127l0.069,-0.128l0.067,-0.129l0.066,-0.13l0.064,-0.13l0.062,-0.132l0.061,-0.132l0.059,-0.133l0.058,-0.134l0.056,-0.135l0.054,-0.135l0.053,-0.137l0.051,-0.137l0.05,-0.138l0.048,-0.138l0.046,-0.14l0.045,-0.14l0.043,-0.141l0.041,-0.142l0.039,-0.142l0.038,-0.143l0.036,-0.144l0.035,-0.145l0.032,-0.145l0.031,-0.145l0.029,-0.147l0.027,-0.147l0.026,-0.148l0.023,-0.148l0.022,-0.15l0.02,-0.149l0.019,-0.151l0.016,-0.15l0.014,-0.152l0.013,-0.152l0.01,-0.153l0.009,-0.153l0.007,-0.154l0.005,-0.155l0.003,-0.155l0.001,-0.156l-0.001,-0.156l-0.003,-0.155l-0.005,-0.154l-0.007,-0.154l-0.009,-0.154l-0.01,-0.152l-0.013,-0.153l-0.014,-0.151l-0.016,-0.151l-0.019,-0.15l-0.02,-0.15l-0.022,-0.149l-0.023,-0.149l-0.026,-0.147l-0.027,-0.148l-0.029,-0.146l-0.031,-0.146l-0.032,-0.145l-0.035,-0.145l-0.036,-0.144l-0.038,-0.143l-0.039,-0.142l-0.041,-0.142l-0.043,-0.141l-0.045,-0.14l-0.046,-0.139l-0.048,-0.139l-0.05,-0.138l-0.051,-0.137l-0.053,-0.137l-0.054,-0.135l-0.056,-0.135l-0.058,-0.134l-0.059,-0.133l-0.061,-0.132l-0.062,-0.132l-0.064,-0.13l-0.066,-0.13l-0.067,-0.129l-0.069,-0.128l-0.069,-0.127l-0.072,-0.126l-0.073,-0.125l-0.074,-0.124l-0.076,-0.123l-0.078,-0.123l-0.079,-0.121l-0.08,-0.12l-0.082,-0.119l-0.083,-0.119l-0.084,-0.117l-0.086,-0.116l-0.087,-0.115l-0.089,-0.114l-0.09,-0.113l-0.091,-0.112l-0.092,-0.111l-0.094,-0.11l-0.095,-0.108l-0.097,-0.107l-0.097,-0.106l-0.099,-0.106l-0.1,-0.103l-0.102,-0.103l-0.102,-0.101l-0.104,-0.101l-0.105,-0.098l-0.106,-0.098l-0.108,-0.097l-0.108,-0.095l-0.11,-0.094l-0.111,-0.092l-0.111,-0.091l-0.114,-0.09l-0.114,-0.089l-0.115,-0.087l-0.116,-0.086l-0.117,-0.084l-0.118,-0.083l-0.12,-0.082l-0.12,-0.08l-0.121,-0.079l-0.122,-0.077l-0.124,-0.076l-0.124,-0.075l-0.125,-0.073l-0.126,-0.071l-0.127,-0.07l-0.128,-0.069l-0.129,-0.067l-0.13,-0.065l-0.13,-0.064l-0.132,-0.063l-0.132,-0.061l-0.133,-0.059l-0.134,-0.058l-0.135,-0.056l-0.135,-0.054l-0.137,-0.053l-0.137,-0.051l-0.138,-0.05l-0.139,-0.048l-0.139,-0.046l-0.14,-0.045l-0.141,-0.042l-0.142,-0.042l-0.142,-0.039l-0.143,-0.038l-0.144,-0.036l-0.145,-0.034l-0.145,-0.033l-0.146,-0.031l-0.146,-0.029l-0.147,-0.027l-0.148,-0.026l-0.149,-0.023l-0.149,-0.022l-0.149,-0.02l-0.151,-0.018l-0.151,-0.017l-0.151,-0.014l-0.152,-0.013l-0.153,-0.01l-0.154,-0.009l-0.154,-0.007l-0.154,-0.005l-0.155,-0.003l-0.166,-0.001l-127.981,0Z" style="fill-opacity:0.6;"/></g><path id="mention" d="M9.545,98.364l3.091,2.246l-1.545,2.127l2.5,0.813l-1.18,3.633l-2.501,-0.812l0,2.629l-3.821,0l0,-2.629l-2.5,0.812l-1.181,-3.633l2.501,-0.813l-1.546,-2.127l3.091,-2.246l1.546,2.127l1.545,-2.127Z" style="fill:#b82525;"/><path id="mention1" d="M110.546,79.728l3.09,2.245l-1.545,2.128l2.5,0.812l-1.18,3.634l-2.5,-0.813l0,2.63l-3.821,0l0,-2.63l-2.501,0.813l-1.18,-3.634l2.5,-0.812l-1.545,-2.128l3.091,-2.245l1.545,2.127l1.546,-2.127Z" style="fill-opacity:0.501961;"/><path id="add-light" d="M20,86l-6,0l0,6l-3,0l0,-6l-6,0l0,-3l6,0l0,-6l3,0l0,6l6,0l0,3Z" style="fill-opacity:0.501961;fill-rule:nonzero;"/><path id="remove-red" d="M40.243,90.364l-4.243,-4.243l-4.243,4.243l-2.121,-2.121l4.243,-4.243l-4.243,-4.243l2.121,-2.121l4.243,4.243l4.243,-4.243l2.121,2.121l-4.243,4.243l4.243,4.243l-2.121,2.121Z" style="fill:#b82525;fill-rule:nonzero;"/><path id="next-light" d="M65.127,90.01l-6.011,-6.01l6.011,-6.01l-2.122,-2.122l-8.132,8.132l8.132,8.132l2.122,-2.122Z" style="fill-opacity:0.501961;fill-rule:nonzero;"/><path id="search-dark" d="M81.048,74c-3.899,0 -7,3.102 -7,7c0,3.898 3.101,7 7,7c1.722,0 3.289,-0.613 4.5,-1.625l0.5,0.5l0,0.813l6.312,6.312l1.688,-1.688l-6.313,-6.312l-0.875,0l-0.469,-0.469c1.028,-1.219 1.657,-2.793 1.657,-4.531c0,-3.898 -3.102,-7 -7,-7Zm0,2c2.8,0 5,2.199 5,5c0,2.801 -2.2,5 -5,5c-2.801,0 -5,-2.199 -5,-5c0,-2.801 2.199,-5 5,-5Z" style="fill:#fff;fill-opacity:0.8;fill-rule:nonzero;"/><path d="M25.686,8.952l-9.469,11.048l9.469,11.048l-4.556,3.904l-12.816,-14.952l12.816,-14.952c1.519,1.301 3.037,2.603 4.556,3.904Z" style="fill-opacity:0.419608;fill-rule:nonzero;"/><path d="M27.096,8.844c0,0 -9.562,11.156 -9.562,11.156l9.562,11.156c0,0 -6.074,5.206 -6.074,5.206l-14.025,-16.362l14.025,-16.362c0,0 6.074,5.206 6.074,5.206Zm-18.782,11.156l12.816,14.952l4.556,-3.904l-9.469,-11.048l9.469,-11.048l-4.556,-3.904l-12.816,14.952Z" style="fill:#fff;"/><path d="M54.314,8.952l9.469,11.048l-9.469,11.048l4.556,3.904l12.816,-14.952l-12.816,-14.952c-1.519,1.301 -3.037,2.603 -4.556,3.904Z" style="fill-opacity:0.419608;fill-rule:nonzero;"/><path d="M58.978,3.638l14.025,16.362l-14.025,16.362c0,0 -6.074,-5.206 -6.074,-5.206l9.562,-11.156l-9.562,-11.156l6.074,-5.206l0,0Zm-4.664,5.314l9.469,11.048l-9.469,11.048l4.556,3.904l12.816,-14.952l-12.816,-14.952l-4.556,3.904Z" style="fill:#fff;"/></svg>