<?xml version="1.0" encoding="UTF-8" standalone="no"?><!DOCTYPE svg PUBLIC "-//W3C//DTD SVG 1.1//EN" "http://www.w3.org/Graphics/SVG/1.1/DTD/svg11.dtd"><svg width="480" height="112" viewBox="0 0 480 112" version="1.1" xmlns="http://www.w3.org/2000/svg" xmlns:xlink="http://www.w3.org/1999/xlink" xml:space="preserve" style="fill-rule:evenodd;clip-rule:evenodd;stroke-linejoin:round;stroke-miterlimit:1.41421;"><path id="facebook" d="M48.097,41c0.732,0.012 1.462,0.063 2.186,0.173c1.341,0.205 2.652,0.594 3.888,1.153c1.483,0.671 2.853,1.585 4.045,2.695c1.233,1.147 2.271,2.501 3.058,3.991c0.673,1.274 1.159,2.645 1.439,4.058c0.322,1.621 0.373,3.295 0.154,4.933c-0.204,1.528 -0.647,3.022 -1.308,4.416c-0.762,1.605 -1.812,3.071 -3.083,4.312c-1.337,1.306 -2.918,2.361 -4.64,3.089c-1.812,0.767 -3.772,1.167 -5.739,1.18c-1.971,0.015 -3.939,-0.364 -5.764,-1.11c-1.732,-0.708 -3.326,-1.743 -4.679,-3.034c-1.286,-1.226 -2.352,-2.679 -3.134,-4.274c-0.677,-1.382 -1.137,-2.869 -1.361,-4.392c-0.235,-1.605 -0.21,-3.248 0.076,-4.844c0.249,-1.391 0.697,-2.745 1.325,-4.011c0.751,-1.509 1.758,-2.888 2.964,-4.066c1.207,-1.178 2.611,-2.153 4.14,-2.867c1.227,-0.573 2.531,-0.978 3.867,-1.2c0.721,-0.119 1.449,-0.184 2.179,-0.2c0.129,-0.001 0.258,-0.002 0.387,-0.002l0,0Zm-0.178,2.5c-0.611,0.004 -1.22,0.052 -1.824,0.145c-1.115,0.171 -2.207,0.494 -3.235,0.959c-1.237,0.56 -2.379,1.322 -3.372,2.247c-1.01,0.94 -1.864,2.047 -2.516,3.263c-0.565,1.055 -0.977,2.193 -1.217,3.367c-0.282,1.376 -0.33,2.8 -0.144,4.191c0.167,1.247 0.524,2.467 1.056,3.607c0.638,1.365 1.525,2.611 2.603,3.664c1.115,1.089 2.433,1.968 3.868,2.576c1.51,0.638 3.142,0.971 4.781,0.981c1.642,0.012 3.282,-0.301 4.802,-0.923c1.444,-0.59 2.772,-1.454 3.901,-2.53c1.09,-1.04 1.992,-2.275 2.646,-3.631c0.546,-1.132 0.917,-2.345 1.099,-3.588c0.204,-1.39 0.173,-2.815 -0.091,-4.194c-0.221,-1.154 -0.607,-2.275 -1.143,-3.32c-0.641,-1.25 -1.494,-2.39 -2.511,-3.36c-0.982,-0.936 -2.115,-1.712 -3.344,-2.286c-1.021,-0.477 -2.107,-0.814 -3.218,-0.999c-0.601,-0.099 -1.208,-0.153 -1.817,-0.166c-0.108,-0.002 -0.216,-0.002 -0.324,-0.002l0,-0.001Zm0.735,20.004l-3.06,0l0,-6.864l-2.594,0l0,-2.622l2.595,0l0,-1.983c0,-2.282 1.543,-3.535 3.827,-3.535c1.094,0 2.054,0.066 2.328,0.099l0,2.42l-1.622,-0.001c-1.242,0 -1.474,0.526 -1.474,1.298l0,1.703l2.972,0l-0.385,2.622l-2.587,0l0,6.863Z" style="fill:#fff;fill-opacity:0.92549;"/><path id="instagram" d="M80.097,41c0.732,0.012 1.462,0.063 2.186,0.173c1.341,0.205 2.652,0.594 3.888,1.153c1.483,0.671 2.853,1.585 4.045,2.695c1.233,1.147 2.271,2.501 3.058,3.991c0.673,1.274 1.159,2.645 1.439,4.058c0.322,1.621 0.373,3.295 0.154,4.933c-0.204,1.528 -0.647,3.022 -1.308,4.416c-0.762,1.605 -1.812,3.071 -3.083,4.312c-1.337,1.306 -2.918,2.361 -4.64,3.089c-1.812,0.767 -3.772,1.167 -5.739,1.18c-1.971,0.015 -3.939,-0.364 -5.764,-1.11c-1.732,-0.708 -3.326,-1.743 -4.68,-3.034c-1.285,-1.226 -2.351,-2.679 -3.133,-4.274c-0.677,-1.382 -1.137,-2.869 -1.361,-4.392c-0.235,-1.605 -0.21,-3.248 0.076,-4.844c0.249,-1.391 0.697,-2.745 1.325,-4.011c0.751,-1.509 1.758,-2.888 2.964,-4.066c1.207,-1.178 2.611,-2.153 4.14,-2.867c1.227,-0.573 2.531,-0.978 3.867,-1.2c0.721,-0.119 1.449,-0.184 2.179,-0.2c0.129,-0.001 0.258,-0.002 0.387,-0.002l0,0Zm-0.178,2.5c-0.611,0.004 -1.22,0.052 -1.824,0.145c-1.115,0.171 -2.207,0.494 -3.235,0.959c-1.237,0.56 -2.379,1.322 -3.372,2.247c-1.028,0.957 -1.895,2.086 -2.551,3.33c-0.547,1.036 -0.947,2.151 -1.182,3.3c-0.282,1.376 -0.33,2.8 -0.144,4.191c0.167,1.247 0.524,2.467 1.056,3.607c0.638,1.365 1.525,2.611 2.603,3.664c1.115,1.089 2.433,1.968 3.868,2.576c1.51,0.638 3.142,0.971 4.781,0.981c1.642,0.012 3.282,-0.301 4.802,-0.923c1.444,-0.59 2.772,-1.454 3.901,-2.53c1.09,-1.04 1.992,-2.275 2.646,-3.631c0.546,-1.132 0.917,-2.345 1.099,-3.588c0.204,-1.39 0.173,-2.815 -0.091,-4.194c-0.221,-1.154 -0.607,-2.275 -1.143,-3.32c-0.641,-1.25 -1.494,-2.39 -2.511,-3.36c-0.982,-0.936 -2.115,-1.712 -3.344,-2.286c-1.021,-0.477 -2.107,-0.814 -3.218,-0.999c-0.601,-0.099 -1.208,-0.153 -1.817,-0.166c-0.108,-0.002 -0.216,-0.002 -0.324,-0.002l0,-0.001Zm5.237,20l-10.312,0c-1.294,0 -2.344,-1.049 -2.344,-2.344l0,-10.312c0,-1.294 1.05,-2.344 2.344,-2.344l10.312,0c1.295,0 2.344,1.05 2.344,2.344l0,10.312c0,1.295 -1.049,2.344 -2.344,2.344l0,0Zm-9.328,-8.75l-1.453,0l0,5.938c0,0.518 0.42,0.937 0.938,0.937l9.374,0c0.518,0 0.938,-0.419 0.938,-0.937l0,-5.938l-1.453,0c0.119,0.399 0.203,0.813 0.203,1.25c0,2.416 -1.959,4.375 -4.375,4.375c-2.416,0 -4.375,-1.959 -4.375,-4.375c0,-0.437 0.084,-0.851 0.203,-1.25l0,0Zm4.172,-1.25c-1.381,0 -2.5,1.12 -2.5,2.5c0,1.381 1.119,2.5 2.5,2.5c1.381,0 2.5,-1.119 2.5,-2.5c0,-1.38 -1.119,-2.5 -2.5,-2.5Zm4.687,-3.125l-0.625,0c-0.518,0 -0.937,0.42 -0.937,0.938l0,0.625c0,0.517 0.42,0.937 0.937,0.937l0.625,0c0.518,0 0.938,-0.42 0.938,-0.937l0,-0.625c0,-0.518 -0.42,-0.938 -0.938,-0.938Z" style="fill:#fff;fill-opacity:0.92549;"/><path id="twitter" d="M16.097,41c0.732,0.012 1.462,0.063 2.186,0.173c1.341,0.205 2.652,0.594 3.888,1.153c1.483,0.671 2.853,1.585 4.045,2.694c1.233,1.148 2.271,2.502 3.058,3.992c0.673,1.274 1.159,2.645 1.439,4.058c0.322,1.621 0.373,3.295 0.154,4.933c-0.204,1.528 -0.647,3.022 -1.308,4.415c-0.762,1.605 -1.812,3.072 -3.083,4.313c-1.337,1.306 -2.918,2.36 -4.64,3.089c-1.812,0.767 -3.772,1.167 -5.739,1.18c-1.971,0.015 -3.939,-0.364 -5.764,-1.11c-1.732,-0.708 -3.326,-1.743 -4.68,-3.034c-1.285,-1.226 -2.351,-2.679 -3.133,-4.274c-0.677,-1.382 -1.137,-2.869 -1.361,-4.392c-0.235,-1.605 -0.21,-3.248 0.076,-4.844c0.249,-1.391 0.697,-2.745 1.325,-4.011c0.751,-1.509 1.758,-2.888 2.964,-4.066c1.207,-1.179 2.611,-2.153 4.14,-2.867c1.227,-0.573 2.531,-0.978 3.867,-1.2c0.721,-0.119 1.448,-0.184 2.178,-0.2c0.13,-0.001 0.259,-0.002 0.388,-0.002l0,0Zm-0.178,2.5c-0.611,0.008 -1.22,0.052 -1.824,0.145c-1.115,0.171 -2.207,0.494 -3.235,0.959c-1.237,0.56 -2.379,1.322 -3.372,2.247c-1.028,0.957 -1.895,2.086 -2.551,3.33c-0.547,1.036 -0.947,2.151 -1.182,3.3c-0.282,1.376 -0.33,2.8 -0.144,4.191c0.167,1.247 0.524,2.467 1.056,3.607c0.638,1.365 1.525,2.611 2.603,3.664c1.115,1.089 2.433,1.968 3.868,2.576c1.51,0.638 3.142,0.971 4.781,0.981c1.642,0.012 3.282,-0.302 4.802,-0.923c1.444,-0.59 2.772,-1.454 3.901,-2.53c1.09,-1.04 1.992,-2.275 2.646,-3.631c0.546,-1.132 0.917,-2.345 1.099,-3.588c0.204,-1.39 0.173,-2.815 -0.091,-4.194c-0.221,-1.154 -0.607,-2.275 -1.143,-3.32c-0.641,-1.25 -1.494,-2.39 -2.511,-3.36c-0.982,-0.936 -2.115,-1.712 -3.344,-2.286c-1.021,-0.477 -2.107,-0.814 -3.218,-0.999c-0.601,-0.099 -1.208,-0.153 -1.817,-0.166c-0.108,-0.002 -0.216,-0.002 -0.324,-0.002l0,-0.001Zm6.539,9.1c0.006,0.147 0.008,0.294 0.008,0.443c0,4.52 -3.35,9.732 -9.478,9.732c-1.883,0 -3.633,-0.565 -5.108,-1.538c0.261,0.03 0.525,0.048 0.795,0.048c1.56,0 2.997,-0.546 4.138,-1.464c-1.458,-0.023 -2.689,-1.016 -3.113,-2.375c0.203,0.043 0.413,0.063 0.628,0.063c0.302,0 0.597,-0.043 0.878,-0.12c-1.525,-0.315 -2.674,-1.698 -2.674,-3.354c0,-0.019 0,-0.027 0,-0.043c0.45,0.255 0.964,0.41 1.51,0.428c-0.895,-0.615 -1.483,-1.661 -1.483,-2.847c0,-0.627 0.164,-1.214 0.452,-1.72c1.642,2.07 4.099,3.43 6.867,3.575c-0.057,-0.25 -0.086,-0.514 -0.086,-0.781c0,-1.889 1.492,-3.42 3.332,-3.42c0.958,0 1.824,0.416 2.431,1.08c0.76,-0.153 1.473,-0.437 2.117,-0.83c-0.249,0.798 -0.777,1.469 -1.466,1.891c0.675,-0.08 1.317,-0.264 1.914,-0.537c-0.447,0.686 -1.011,1.287 -1.662,1.77l0,-0.001Z" style="fill:#fff;fill-opacity:0.92549;"/><path id="mention" d="M9.545,98.364l3.091,2.246l-1.545,2.127l2.5,0.813l-1.18,3.633l-2.501,-0.812l0,2.629l-3.821,0l0,-2.629l-2.5,0.812l-1.181,-3.633l2.501,-0.813l-1.546,-2.127l3.091,-2.246l1.546,2.127l1.545,-2.127Z" style="fill:#b82525;"/><path id="add-light" d="M20,86l-6,0l0,6l-3,0l0,-6l-6,0l0,-3l6,0l0,-6l3,0l0,6l6,0l0,3Z" style="fill-opacity:0.501961;fill-rule:nonzero;"/><path id="remove-red" d="M40.243,90.364l-4.243,-4.243l-4.243,4.243l-2.121,-2.121l4.243,-4.243l-4.243,-4.243l2.121,-2.121l4.243,4.243l4.243,-4.243l2.121,2.121l-4.243,4.243l4.243,4.243l-2.121,2.121Z" style="fill:#b82525;fill-rule:nonzero;"/><path id="next-light" d="M65.127,90.01l-6.011,-6.01l6.011,-6.01l-2.122,-2.122l-8.132,8.132l8.132,8.132l2.122,-2.122Z" style="fill-opacity:0.501961;fill-rule:nonzero;"/></svg>