<?xml version="1.0" encoding="UTF-8" standalone="no"?><!DOCTYPE svg PUBLIC "-//W3C//DTD SVG 1.1//EN" "http://www.w3.org/Graphics/SVG/1.1/DTD/svg11.dtd"><svg width="480" height="112" viewBox="0 0 480 112" version="1.1" xmlns="http://www.w3.org/2000/svg" xmlns:xlink="http://www.w3.org/1999/xlink" xml:space="preserve" style="fill-rule:evenodd;clip-rule:evenodd;stroke-linejoin:round;stroke-miterlimit:1.41421;"><path id="twitter" d="M16.194,41.001c0.7,0.014 1.397,0.066 2.089,0.172c1.401,0.214 2.769,0.629 4.053,1.229c1.474,0.689 2.833,1.619 4.011,2.742c1.22,1.163 2.242,2.53 3.011,4.03c0.644,1.256 1.108,2.602 1.373,3.988c0.312,1.623 0.353,3.298 0.123,4.935c-0.213,1.525 -0.665,3.016 -1.334,4.404c-0.785,1.627 -1.866,3.109 -3.173,4.355c-1.354,1.291 -2.948,2.327 -4.679,3.035c-1.795,0.734 -3.729,1.109 -5.668,1.109c-1.939,0 -3.873,-0.375 -5.668,-1.109c-1.731,-0.708 -3.325,-1.744 -4.679,-3.035c-1.307,-1.246 -2.388,-2.728 -3.173,-4.355c-0.669,-1.388 -1.121,-2.879 -1.334,-4.404c-0.23,-1.637 -0.189,-3.312 0.123,-4.935c0.265,-1.386 0.729,-2.732 1.373,-3.988c0.769,-1.5 1.791,-2.867 3.011,-4.03c1.178,-1.123 2.537,-2.053 4.011,-2.742c1.284,-0.6 2.652,-1.015 4.053,-1.229c0.692,-0.106 1.389,-0.158 2.089,-0.172c0.194,-0.001 0.194,-0.001 0.388,0Zm-0.35,3c-0.56,0.011 -1.119,0.053 -1.673,0.138c-1.119,0.171 -2.212,0.502 -3.237,0.981c-2.364,1.105 -4.337,2.986 -5.555,5.293c-0.526,0.996 -0.909,2.065 -1.135,3.168c-0.276,1.345 -0.318,2.739 -0.127,4.099c0.17,1.219 0.531,2.409 1.065,3.518c0.629,1.303 1.494,2.489 2.541,3.487c1.084,1.033 2.359,1.862 3.745,2.429c1.435,0.587 2.982,0.886 4.532,0.886c1.55,0 3.097,-0.299 4.532,-0.886c1.386,-0.567 2.661,-1.396 3.745,-2.429c1.047,-0.998 1.912,-2.184 2.541,-3.487c0.534,-1.109 0.895,-2.299 1.065,-3.518c0.191,-1.36 0.149,-2.754 -0.127,-4.099c-0.226,-1.103 -0.609,-2.172 -1.135,-3.168c-1.218,-2.307 -3.191,-4.188 -5.555,-5.293c-1.025,-0.479 -2.118,-0.81 -3.237,-0.981c-0.554,-0.085 -1.113,-0.127 -1.673,-0.138c-0.156,-0.001 -0.155,-0.001 -0.312,0Zm6.614,8.599c0.006,0.147 0.008,0.294 0.008,0.443c0,4.52 -3.35,9.732 -9.478,9.732c-1.883,0 -3.633,-0.565 -5.108,-1.538c0.261,0.03 0.525,0.048 0.795,0.048c1.56,0 2.997,-0.546 4.138,-1.464c-1.458,-0.023 -2.689,-1.016 -3.113,-2.375c0.203,0.043 0.413,0.063 0.628,0.063c0.302,0 0.597,-0.043 0.878,-0.12c-1.525,-0.315 -2.674,-1.698 -2.674,-3.354c0,-0.019 0,-0.027 0,-0.043c0.45,0.255 0.964,0.41 1.51,0.428c-0.895,-0.615 -1.483,-1.661 -1.483,-2.847c0,-0.627 0.164,-1.214 0.452,-1.72c1.642,2.07 4.099,3.43 6.867,3.575c-0.057,-0.25 -0.086,-0.514 -0.086,-0.781c0,-1.889 1.492,-3.42 3.332,-3.42c0.958,0 1.824,0.416 2.431,1.08c0.76,-0.153 1.473,-0.437 2.117,-0.83c-0.249,0.798 -0.777,1.469 -1.466,1.891c0.675,-0.08 1.317,-0.264 1.914,-0.537c-0.447,0.686 -1.011,1.287 -1.662,1.77l0,-0.001Z" style="fill-opacity:0.6;"/><path id="facebook" d="M48.194,41.001c0.7,0.014 1.397,0.066 2.089,0.172c1.401,0.214 2.77,0.629 4.053,1.229c1.475,0.689 2.834,1.619 4.011,2.742c1.22,1.163 2.243,2.53 3.011,4.03c0.644,1.256 1.108,2.602 1.374,3.988c0.311,1.623 0.352,3.298 0.123,4.935c-0.214,1.525 -0.666,3.016 -1.335,4.404c-0.784,1.627 -1.865,3.109 -3.173,4.355c-1.354,1.291 -2.947,2.327 -4.679,3.035c-1.795,0.734 -3.729,1.109 -5.668,1.109c-1.939,0 -3.872,-0.375 -5.667,-1.109c-1.732,-0.708 -3.326,-1.744 -4.68,-3.035c-1.307,-1.246 -2.388,-2.728 -3.173,-4.355c-0.669,-1.388 -1.12,-2.879 -1.334,-4.404c-0.229,-1.637 -0.188,-3.312 0.123,-4.935c0.266,-1.386 0.73,-2.732 1.373,-3.988c0.769,-1.5 1.792,-2.867 3.011,-4.03c1.178,-1.123 2.537,-2.053 4.011,-2.742c1.284,-0.6 2.653,-1.015 4.053,-1.229c0.692,-0.106 1.39,-0.158 2.09,-0.172c0.194,-0.001 0.193,-0.001 0.387,0Zm-0.349,3c-0.561,0.011 -1.12,0.053 -1.674,0.138c-1.119,0.171 -2.212,0.502 -3.237,0.981c-2.364,1.105 -4.337,2.986 -5.555,5.293c-0.525,0.996 -0.909,2.065 -1.135,3.168c-0.275,1.345 -0.318,2.739 -0.127,4.099c0.171,1.219 0.531,2.409 1.066,3.518c0.628,1.303 1.494,2.489 2.541,3.487c1.083,1.033 2.358,1.862 3.744,2.429c1.436,0.587 2.982,0.886 4.532,0.886c1.551,0 3.097,-0.299 4.532,-0.886c1.386,-0.567 2.662,-1.396 3.745,-2.429c1.047,-0.998 1.913,-2.184 2.541,-3.487c0.534,-1.109 0.895,-2.299 1.066,-3.518c0.19,-1.36 0.148,-2.754 -0.128,-4.099c-0.226,-1.103 -0.609,-2.172 -1.135,-3.168c-1.218,-2.307 -3.19,-4.188 -5.554,-5.293c-1.026,-0.479 -2.119,-0.81 -3.237,-0.981c-0.555,-0.085 -1.113,-0.127 -1.674,-0.138c-0.156,-0.001 -0.155,-0.001 -0.311,0Zm0.809,19.503l-3.06,0l0,-6.864l-2.594,0l0,-2.622l2.595,0l0,-1.983c0,-2.282 1.543,-3.535 3.827,-3.535c1.094,0 2.054,0.066 2.328,0.099l0,2.42l-1.622,-0.001c-1.242,0 -1.474,0.526 -1.474,1.298l0,1.703l2.972,0l-0.385,2.622l-2.587,0l0,6.863Z" style="fill-opacity:0.6;"/><path id="instagram" d="M80.194,41.001c0.7,0.014 1.397,0.066 2.09,0.172c1.4,0.214 2.769,0.629 4.053,1.229c1.474,0.689 2.833,1.619 4.01,2.742c1.22,1.163 2.243,2.53 3.011,4.03c0.644,1.256 1.108,2.602 1.374,3.988c0.311,1.623 0.352,3.298 0.123,4.935c-0.214,1.525 -0.665,3.016 -1.335,4.404c-0.784,1.627 -1.865,3.109 -3.173,4.355c-1.353,1.291 -2.947,2.327 -4.679,3.035c-1.795,0.734 -3.729,1.109 -5.667,1.109c-1.939,0 -3.873,-0.375 -5.668,-1.109c-1.732,-0.708 -3.326,-1.744 -4.679,-3.035c-1.308,-1.246 -2.389,-2.728 -3.173,-4.355c-0.669,-1.388 -1.121,-2.879 -1.335,-4.404c-0.229,-1.637 -0.188,-3.312 0.123,-4.935c0.266,-1.386 0.73,-2.732 1.374,-3.988c0.768,-1.5 1.791,-2.867 3.011,-4.03c1.177,-1.123 2.536,-2.053 4.01,-2.742c1.284,-0.6 2.653,-1.015 4.053,-1.229c0.693,-0.106 1.39,-0.158 2.09,-0.172c0.194,-0.001 0.194,-0.001 0.387,0Zm-0.349,3c-0.561,0.011 -1.119,0.053 -1.674,0.138c-1.119,0.171 -2.212,0.502 -3.237,0.981c-2.364,1.105 -4.337,2.986 -5.555,5.293c-0.525,0.996 -0.909,2.065 -1.134,3.168c-0.276,1.345 -0.318,2.739 -0.128,4.099c0.171,1.219 0.532,2.409 1.066,3.518c0.628,1.303 1.494,2.489 2.541,3.487c1.083,1.033 2.358,1.862 3.744,2.429c1.436,0.587 2.982,0.886 4.533,0.886c1.55,0 3.096,-0.299 4.532,-0.886c1.386,-0.567 2.661,-1.396 3.744,-2.429c1.047,-0.998 1.913,-2.184 2.541,-3.487c0.534,-1.109 0.895,-2.299 1.066,-3.518c0.19,-1.36 0.148,-2.754 -0.127,-4.099c-0.226,-1.103 -0.61,-2.172 -1.135,-3.168c-1.218,-2.307 -3.191,-4.188 -5.555,-5.293c-1.025,-0.479 -2.118,-0.81 -3.237,-0.981c-0.555,-0.085 -1.113,-0.127 -1.674,-0.138c-0.155,-0.001 -0.155,-0.001 -0.311,0Zm5.311,19.499l-10.312,0c-1.294,0 -2.344,-1.049 -2.344,-2.344l0,-10.312c0,-1.294 1.05,-2.344 2.344,-2.344l10.312,0c1.295,0 2.344,1.05 2.344,2.344l0,10.312c0,1.295 -1.049,2.344 -2.344,2.344Zm-9.328,-8.75l-1.453,0l0,5.938c0,0.518 0.42,0.937 0.938,0.937l9.374,0c0.518,0 0.938,-0.419 0.938,-0.937l0,-5.938l-1.453,0c0.119,0.399 0.203,0.813 0.203,1.25c0,2.416 -1.959,4.375 -4.375,4.375c-2.416,0 -4.375,-1.959 -4.375,-4.375c0,-0.437 0.084,-0.851 0.203,-1.25Zm4.172,-1.25c-1.381,0 -2.5,1.12 -2.5,2.5c0,1.381 1.119,2.5 2.5,2.5c1.381,0 2.5,-1.119 2.5,-2.5c0,-1.38 -1.119,-2.5 -2.5,-2.5Zm4.687,-3.125l-0.625,0c-0.518,0 -0.937,0.42 -0.937,0.938l0,0.625c0,0.517 0.42,0.937 0.937,0.937l0.625,0c0.518,0 0.938,-0.42 0.938,-0.937l0,-0.625c0,-0.518 -0.42,-0.938 -0.938,-0.938Z" style="fill-opacity:0.6;"/><path id="snapchat" d="M112.195,41.001c0.699,0.014 1.397,0.066 2.089,0.172c1.401,0.214 2.769,0.629 4.053,1.229c1.474,0.689 2.833,1.619 4.011,2.742c1.219,1.163 2.242,2.53 3.011,4.03c0.643,1.256 1.107,2.602 1.373,3.988c0.311,1.623 0.352,3.298 0.123,4.935c-0.214,1.525 -0.665,3.016 -1.334,4.404c-0.785,1.627 -1.866,3.109 -3.173,4.355c-1.354,1.291 -2.948,2.327 -4.68,3.035c-1.795,0.734 -3.728,1.109 -5.667,1.109c-1.939,0 -3.873,-0.375 -5.668,-1.109c-1.732,-0.708 -3.325,-1.744 -4.679,-3.035c-1.308,-1.246 -2.388,-2.728 -3.173,-4.355c-0.669,-1.388 -1.121,-2.879 -1.335,-4.404c-0.229,-1.637 -0.188,-3.312 0.123,-4.935c0.266,-1.386 0.73,-2.732 1.374,-3.988c0.768,-1.5 1.791,-2.867 3.011,-4.03c1.177,-1.123 2.536,-2.053 4.011,-2.742c1.283,-0.6 2.652,-1.015 4.053,-1.229c0.692,-0.106 1.389,-0.158 2.089,-0.172c0.194,-0.001 0.194,-0.001 0.388,0Zm-0.35,3c-0.561,0.011 -1.119,0.053 -1.674,0.138c-1.118,0.171 -2.211,0.502 -3.237,0.981c-2.363,1.105 -4.336,2.986 -5.554,5.293c-0.526,0.996 -0.909,2.065 -1.135,3.168c-0.276,1.345 -0.318,2.739 -0.128,4.099c0.171,1.219 0.532,2.409 1.066,3.518c0.628,1.303 1.494,2.489 2.541,3.487c1.084,1.033 2.359,1.862 3.745,2.429c1.435,0.587 2.981,0.886 4.532,0.886c1.55,0 3.097,-0.299 4.532,-0.886c1.386,-0.567 2.661,-1.396 3.745,-2.429c1.046,-0.998 1.912,-2.184 2.54,-3.487c0.535,-1.109 0.895,-2.299 1.066,-3.518c0.191,-1.36 0.148,-2.754 -0.127,-4.099c-0.226,-1.103 -0.61,-2.172 -1.135,-3.168c-1.218,-2.307 -3.191,-4.188 -5.555,-5.293c-1.025,-0.479 -2.118,-0.81 -3.237,-0.981c-0.554,-0.085 -1.113,-0.127 -1.674,-0.138c-0.155,-0.001 -0.155,-0.001 -0.311,0Zm6.083,18.714l-0.021,0c-0.088,0 -0.212,-0.016 -0.369,-0.046c-0.28,-0.055 -0.594,-0.106 -0.992,-0.106c-0.233,0 -0.474,0.021 -0.716,0.061c-0.495,0.083 -0.916,0.379 -1.362,0.694c-0.645,0.455 -1.314,0.928 -2.355,0.928c-0.045,0 -0.089,-0.001 -0.134,-0.004c-0.029,0.002 -0.059,0.004 -0.088,0.004c-1.041,0 -1.709,-0.472 -2.356,-0.929c-0.446,-0.316 -0.867,-0.613 -1.362,-0.695c-0.243,-0.041 -0.484,-0.06 -0.716,-0.06c-0.419,0 -0.751,0.065 -0.992,0.112c-0.147,0.029 -0.273,0.053 -0.37,0.053c-0.101,0 -0.209,-0.021 -0.257,-0.183c-0.042,-0.141 -0.071,-0.276 -0.1,-0.407c-0.074,-0.338 -0.126,-0.546 -0.268,-0.568c-1.651,-0.255 -2.124,-0.603 -2.229,-0.85c-0.015,-0.035 -0.024,-0.07 -0.026,-0.105c-0.005,-0.095 0.063,-0.178 0.156,-0.194c2.538,-0.418 3.676,-3.012 3.723,-3.123c0.001,-0.002 0.003,-0.005 0.004,-0.009c0.155,-0.315 0.185,-0.588 0.09,-0.812c-0.174,-0.411 -0.742,-0.59 -1.118,-0.71c-0.092,-0.029 -0.179,-0.057 -0.247,-0.084c-0.751,-0.297 -0.813,-0.601 -0.784,-0.756c0.05,-0.265 0.404,-0.449 0.689,-0.449c0.079,0 0.147,0.015 0.206,0.042c0.337,0.158 0.641,0.238 0.904,0.238c0.363,0 0.521,-0.152 0.541,-0.172c-0.01,-0.172 -0.021,-0.351 -0.033,-0.536c-0.075,-1.2 -0.169,-2.691 0.211,-3.542c1.137,-2.552 3.55,-2.75 4.262,-2.75c0.018,0 0.313,-0.003 0.313,-0.003l0.043,0c0.713,0 3.131,0.199 4.27,2.752c0.38,0.851 0.285,2.343 0.21,3.542l-0.003,0.052c-0.01,0.166 -0.02,0.329 -0.029,0.485c0.018,0.019 0.164,0.158 0.493,0.171c0.249,-0.009 0.537,-0.089 0.852,-0.236c0.092,-0.043 0.195,-0.052 0.265,-0.052c0.106,0 0.214,0.021 0.304,0.058l0.006,0.002c0.255,0.091 0.422,0.27 0.425,0.456c0.004,0.176 -0.131,0.44 -0.789,0.7c-0.068,0.026 -0.155,0.055 -0.248,0.084c-0.376,0.119 -0.944,0.299 -1.118,0.71c-0.095,0.224 -0.065,0.497 0.091,0.812c0.001,0.003 0.003,0.006 0.003,0.009c0.048,0.111 1.184,2.704 3.724,3.122c0.094,0.015 0.161,0.099 0.155,0.194c-0.002,0.036 -0.01,0.071 -0.026,0.106c-0.105,0.245 -0.578,0.593 -2.229,0.848c-0.134,0.021 -0.187,0.197 -0.267,0.565c-0.029,0.134 -0.06,0.266 -0.1,0.405c-0.035,0.121 -0.11,0.176 -0.236,0.176Z" style="fill-opacity:0.6;"/><path id="whatsapp" d="M144.195,41.001c0.7,0.014 1.397,0.066 2.089,0.172c1.401,0.214 2.77,0.629 4.053,1.229c1.474,0.689 2.834,1.619 4.011,2.742c1.22,1.163 2.242,2.53 3.011,4.03c0.644,1.256 1.108,2.602 1.373,3.988c0.312,1.623 0.353,3.298 0.123,4.935c-0.213,1.525 -0.665,3.016 -1.334,4.404c-0.785,1.627 -1.866,3.109 -3.173,4.355c-1.354,1.291 -2.948,2.327 -4.679,3.035c-1.795,0.734 -3.729,1.109 -5.668,1.109c-1.939,0 -3.873,-0.375 -5.668,-1.109c-1.731,-0.708 -3.325,-1.744 -4.679,-3.035c-1.307,-1.246 -2.388,-2.728 -3.173,-4.355c-0.669,-1.388 -1.121,-2.879 -1.334,-4.404c-0.23,-1.637 -0.189,-3.312 0.123,-4.935c0.265,-1.386 0.729,-2.732 1.373,-3.988c0.769,-1.5 1.792,-2.867 3.011,-4.03c1.178,-1.123 2.537,-2.053 4.011,-2.742c1.284,-0.6 2.652,-1.015 4.053,-1.229c0.692,-0.106 1.389,-0.158 2.089,-0.172c0.194,-0.001 0.194,-0.001 0.388,0Zm-0.35,3c-0.56,0.011 -1.119,0.053 -1.673,0.138c-1.119,0.171 -2.212,0.502 -3.237,0.981c-2.364,1.105 -4.337,2.986 -5.555,5.293c-0.526,0.996 -0.909,2.065 -1.135,3.168c-0.276,1.345 -0.318,2.739 -0.127,4.099c0.17,1.219 0.531,2.409 1.066,3.518c0.628,1.303 1.494,2.489 2.54,3.487c1.084,1.033 2.359,1.862 3.745,2.429c1.435,0.587 2.982,0.886 4.532,0.886c1.55,0 3.097,-0.299 4.532,-0.886c1.386,-0.567 2.661,-1.396 3.745,-2.429c1.047,-0.998 1.912,-2.184 2.541,-3.487c0.534,-1.109 0.895,-2.299 1.065,-3.518c0.191,-1.36 0.149,-2.754 -0.127,-4.099c-0.226,-1.103 -0.609,-2.172 -1.135,-3.168c-1.218,-2.307 -3.191,-4.188 -5.555,-5.293c-1.025,-0.479 -2.118,-0.81 -3.237,-0.981c-0.554,-0.085 -1.113,-0.127 -1.673,-0.138c-0.156,-0.001 -0.155,-0.001 -0.312,0Zm1.286,19.682c2.255,-0.317 4.303,-1.654 5.526,-3.606c0.576,-0.92 0.945,-1.936 1.101,-3.033c0.078,-0.546 0.077,-1.582 -0.002,-2.115c-0.248,-1.682 -1,-3.178 -2.204,-4.385c-2.061,-2.068 -5.051,-2.811 -7.868,-1.957c-2.238,0.678 -4.141,2.454 -4.994,4.661c-0.876,2.267 -0.598,4.888 0.737,6.953l0.241,0.373l-0.48,1.418c-0.264,0.779 -0.467,1.417 -0.451,1.417c0.017,0 0.688,-0.208 1.491,-0.463l1.461,-0.463l0.281,0.161c0.544,0.312 0.618,0.35 0.967,0.497c1.315,0.556 2.767,0.743 4.194,0.542l0,0Zm0.687,-3.425c-0.486,-0.125 -1.625,-0.546 -2.041,-0.755c-0.716,-0.359 -1.364,-0.855 -2.099,-1.609c-1.088,-1.116 -1.905,-2.365 -2.136,-3.262c-0.082,-0.323 -0.093,-0.428 -0.079,-0.798c0.027,-0.699 0.235,-1.2 0.706,-1.697c0.308,-0.327 0.408,-0.365 0.931,-0.356c0.615,0.011 0.542,-0.074 1.111,1.292c0.195,0.469 0.366,0.9 0.38,0.956c0.037,0.155 -0.119,0.437 -0.467,0.844c-0.369,0.432 -0.369,0.437 -0.003,0.973c0.512,0.749 1.029,1.27 1.709,1.724c0.359,0.24 1.168,0.638 1.36,0.67c0.117,0.019 0.145,0.004 0.292,-0.148c0.089,-0.093 0.307,-0.35 0.483,-0.572c0.326,-0.407 0.377,-0.45 0.536,-0.455c0.104,-0.003 0.785,0.297 1.61,0.709c0.671,0.335 0.679,0.344 0.64,0.743c-0.025,0.26 -0.127,0.664 -0.205,0.81c-0.08,0.149 -0.346,0.413 -0.569,0.565c-0.682,0.463 -1.343,0.575 -2.159,0.366l0,0Z" style="fill-opacity:0.6;"/><path id="mention" d="M9.545,98.364l3.091,2.246l-1.545,2.127l2.5,0.813l-1.18,3.633l-2.501,-0.812l0,2.629l-3.821,0l0,-2.629l-2.5,0.812l-1.181,-3.633l2.501,-0.813l-1.546,-2.127l3.091,-2.246l1.546,2.127l1.545,-2.127Z" style="fill:#b82525;"/><path id="add-light" d="M20,86l-6,0l0,6l-3,0l0,-6l-6,0l0,-3l6,0l0,-6l3,0l0,6l6,0l0,3Z" style="fill-opacity:0.501961;fill-rule:nonzero;"/><path id="remove-red" d="M40.243,90.364l-4.243,-4.243l-4.243,4.243l-2.121,-2.121l4.243,-4.243l-4.243,-4.243l2.121,-2.121l4.243,4.243l4.243,-4.243l2.121,2.121l-4.243,4.243l4.243,4.243l-2.121,2.121Z" style="fill:#b82525;fill-rule:nonzero;"/><path id="next-light" d="M65.127,90.01l-6.011,-6.01l6.011,-6.01l-2.122,-2.122l-8.132,8.132l8.132,8.132l2.122,-2.122Z" style="fill-opacity:0.501961;fill-rule:nonzero;"/><path id="search-dark" d="M81.048,74c-3.899,0 -7,3.102 -7,7c0,3.898 3.101,7 7,7c1.722,0 3.289,-0.613 4.5,-1.625l0.5,0.5l0,0.813l6.312,6.312l1.688,-1.688l-6.313,-6.312l-0.875,0l-0.469,-0.469c1.028,-1.219 1.657,-2.793 1.657,-4.531c0,-3.898 -3.102,-7 -7,-7Zm0,2c2.8,0 5,2.199 5,5c0,2.801 -2.2,5 -5,5c-2.801,0 -5,-2.199 -5,-5c0,-2.801 2.199,-5 5,-5Z" style="fill:#fff;fill-opacity:0.8;fill-rule:nonzero;"/><path d="M25.686,8.952l-9.469,11.048l9.469,11.048l-4.556,3.904l-12.816,-14.952l12.816,-14.952c1.519,1.301 3.037,2.603 4.556,3.904Z" style="fill-opacity:0.419608;fill-rule:nonzero;"/><path d="M27.096,8.844c0,0 -9.562,11.156 -9.562,11.156l9.562,11.156c0,0 -6.074,5.206 -6.074,5.206l-14.025,-16.362l14.025,-16.362c0,0 6.074,5.206 6.074,5.206Zm-18.782,11.156l12.816,14.952l4.556,-3.904l-9.469,-11.048l9.469,-11.048l-4.556,-3.904l-12.816,14.952Z" style="fill:#fff;"/><path d="M54.314,8.952l9.469,11.048l-9.469,11.048l4.556,3.904l12.816,-14.952l-12.816,-14.952c-1.519,1.301 -3.037,2.603 -4.556,3.904Z" style="fill-opacity:0.419608;fill-rule:nonzero;"/><path d="M58.978,3.638l14.025,16.362l-14.025,16.362c0,0 -6.074,-5.206 -6.074,-5.206l9.562,-11.156l-9.562,-11.156l6.074,-5.206l0,0Zm-4.664,5.314l9.469,11.048l-9.469,11.048l4.556,3.904l12.816,-14.952l-12.816,-14.952l-4.556,3.904Z" style="fill:#fff;"/></svg>