<?xml version="1.0" encoding="UTF-8" standalone="no"?><!DOCTYPE svg PUBLIC "-//W3C//DTD SVG 1.1//EN" "http://www.w3.org/Graphics/SVG/1.1/DTD/svg11.dtd"><svg width="40" height="40" viewBox="0 0 40 40" version="1.1" xmlns="http://www.w3.org/2000/svg" xmlns:xlink="http://www.w3.org/1999/xlink" xml:space="preserve" style="fill-rule:evenodd;clip-rule:evenodd;stroke-linejoin:round;stroke-miterlimit:1.41421;"><path d="M40,37.6l0,2.4l-2.4,0c0,-1.325 1.075,-2.4 2.4,-2.4Zm0,-5.6l0,3l-5,0l0,5l-3,0l0,-8l8,0Zm-24.557,8l-4.243,0l7.2,-7.2l-11.2,-11.2l-5.6,5.6l-1.6,1.6l0,-4.243l4.557,-4.557l-4.557,-4.557l0,-4.243l7.2,7.2l11.2,-11.2l-7.2,-7.2l4.243,0l4.557,4.557l4.557,-4.557l4.243,0l-7.2,7.2l11.2,11.2l7.2,-7.2l0,4.243l-4.557,4.557l4.557,4.557l0,4.243l-7.2,-7.2l-11.2,11.2l7.2,7.2l-4.243,0l-4.557,-4.557l-4.557,4.557Zm-13.043,0l-2.4,0l0,-2.4c1.324,0 2.399,1.075 2.4,2.4Zm5.6,0l-3,0l0,-5l-5,0l0,-3l8,0l0,8Zm2.4,-12.8c1.325,0 2.4,1.075 2.4,2.4c0,1.325 -1.075,2.4 -2.4,2.4c-1.325,0 -2.4,-1.075 -2.4,-2.4c0,-1.325 1.075,-2.4 2.4,-2.4Zm19.2,0c1.325,0 2.4,1.075 2.4,2.4c0,1.325 -1.075,2.4 -2.4,2.4c-1.325,0 -2.4,-1.075 -2.4,-2.4c0,-1.325 1.075,-2.4 2.4,-2.4Zm-19.757,-7.2l10.157,10.157l10.157,-10.157l-10.157,-10.157c-3.386,3.385 -6.772,6.771 -10.157,10.157Zm10.157,-2.4c1.325,0 2.4,1.075 2.4,2.4c0,1.325 -1.075,2.4 -2.4,2.4c-1.325,0 -2.4,-1.075 -2.4,-2.4c0,-1.325 1.075,-2.4 2.4,-2.4Zm9.6,-9.6c1.325,0 2.4,1.075 2.4,2.4c0,1.325 -1.075,2.4 -2.4,2.4c-1.325,0 -2.4,-1.075 -2.4,-2.4c0,-1.325 1.075,-2.4 2.4,-2.4Zm-19.2,0c1.325,0 2.4,1.075 2.4,2.4c0,1.325 -1.075,2.4 -2.4,2.4c-1.325,0 -2.4,-1.075 -2.4,-2.4c0,-1.325 1.075,-2.4 2.4,-2.4Zm29.6,0l-8,0l0,-8l3,0l0,5l5,0l0,3Zm-32,0l-8,0l0,-3l5,0l0,-5l3,0l0,8Zm32,-8l0,2.4c-1.325,0 -2.4,-1.075 -2.4,-2.4l2.4,0Zm-37.6,0c0,1.325 -1.076,2.4 -2.4,2.4c0,0 0,-2.4 0,-2.4l2.4,0Z" style="fill:#ffffff;fill-opacity:0.07;"/></svg>